<svg id="svg-source" height="0" version="1.1" 
  xmlns="http://www.w3.org/2000/svg" style="position:absolute; margin-left: -100%" 
  xmlns:xlink="http://www.w3.org/1999/xlink">
  <g id="send" data-iconmelon="80 icons pack:de14d4d9ef8d74b822809ab24a4698f4">
    <g>
      <g>
        <path d="M29.164,10.668h-9.408v2.306h7.409L16,24.139L4.836,12.975h7.615v-2.306H2.836c-0.953,0-1.729,0.775-1.729,1.73v17.872
			C1.107,31.224,1.883,32,2.836,32h26.328c0.953,0,1.729-0.775,1.729-1.729V12.398C30.893,11.444,30.117,10.668,29.164,10.668z
			 M28.588,29.694H3.413V14.812l11.364,11.366c0.337,0.336,0.78,0.505,1.223,0.505c0.443,0,0.887-0.168,1.223-0.506l11.365-11.365
			V29.694z"></path>
      </g>
      <g>
        <path d="M13.35,17.12c0,0.424,0.343,0.767,0.766,0.767h4.025c0.422,0,0.766-0.343,0.766-0.767V7.345h2.978
			c0-0.115-0.034-0.232-0.104-0.32l-5.4-6.892c-0.139-0.177-0.363-0.177-0.502,0l-5.4,6.892c-0.07,0.088-0.105,0.205-0.105,0.32
			h2.979V17.12z"></path>
      </g>
    </g>
  </g>
</svg>